<svg xmlns="http://www.w3.org/2000/svg" viewBox="0 0 900 450" font-family="sans-serif" font-size="12">
<style>.ax{stroke:#888;fill:none}.grid{stroke:#eee;fill:none}.label{fill:#333}.title{fill:#222;font-weight:bold;font-size:14px}</style>
<text x="450.0" y="20" text-anchor="middle" class="title">Aztec7 orthophoto accuracy: ODM (red) vs Pix4D (green)</text>
<line class="grid" x1="70" y1="345.45454545454544" x2="880" y2="345.45454545454544"/>
<text x="64" y="349.45454545454544" text-anchor="end" class="label">0.5</text>
<line class="grid" x1="70" y1="290.9090909090909" x2="880" y2="290.9090909090909"/>
<text x="64" y="294.9090909090909" text-anchor="end" class="label">1.0</text>
<line class="grid" x1="70" y1="236.36363636363635" x2="880" y2="236.36363636363635"/>
<text x="64" y="240.36363636363635" text-anchor="end" class="label">1.5</text>
<line class="grid" x1="70" y1="181.8181818181818" x2="880" y2="181.8181818181818"/>
<text x="64" y="185.8181818181818" text-anchor="end" class="label">2.0</text>
<line class="grid" x1="70" y1="127.27272727272725" x2="880" y2="127.27272727272725"/>
<text x="64" y="131.27272727272725" text-anchor="end" class="label">2.5</text>
<line class="grid" x1="70" y1="72.72727272727269" x2="880" y2="72.72727272727269"/>
<text x="64" y="76.72727272727269" text-anchor="end" class="label">3.0</text>
<line class="ax" x1="70" y1="40" x2="70" y2="400"/>
<line class="ax" x1="70" y1="400" x2="880" y2="400"/>
<text x="20" y="220.0" transform="rotate(-90 20 220.0)" text-anchor="middle" class="label">Orthophoto dH (ft)</text>
<text x="450.0" y="435" text-anchor="middle" class="label">UTM Northing (m)</text>
<line class="ax" x1="70.0" y1="400" x2="70.0" y2="404"/>
<text x="70.0" y="416" text-anchor="middle" class="label">4085000</text>
<line class="ax" x1="205.0" y1="400" x2="205.0" y2="404"/>
<text x="205.0" y="416" text-anchor="middle" class="label">4086000</text>
<line class="ax" x1="340.0" y1="400" x2="340.0" y2="404"/>
<text x="340.0" y="416" text-anchor="middle" class="label">4087000</text>
<line class="ax" x1="475.0" y1="400" x2="475.0" y2="404"/>
<text x="475.0" y="416" text-anchor="middle" class="label">4088000</text>
<line class="ax" x1="610.0" y1="400" x2="610.0" y2="404"/>
<text x="610.0" y="416" text-anchor="middle" class="label">4089000</text>
<line class="ax" x1="745.0" y1="400" x2="745.0" y2="404"/>
<text x="745.0" y="416" text-anchor="middle" class="label">4090000</text>
<line class="ax" x1="880.0" y1="400" x2="880.0" y2="404"/>
<text x="880.0" y="416" text-anchor="middle" class="label">4091000</text>
<line x1="475.81" y1="40" x2="475.81" y2="400" stroke="#888" stroke-dasharray="4,3"/>
<text x="479.81" y="52" fill="#666" font-size="11">rasterizer offset</text>
<polygon points="86.86149999998743,306.94545454545454 91.86149999998743,316.94545454545454 81.86149999998743,316.94545454545454" fill="#0a0" opacity="0.85"/>
<circle cx="91.69450000002514" cy="310.6545454545454" r="3" fill="#0a0" opacity="0.7"/>
<circle cx="120.23350000001257" cy="311.74545454545455" r="3" fill="#0a0" opacity="0.7"/>
<circle cx="121.58350000001258" cy="318.4" r="3" fill="#0a0" opacity="0.7"/>
<circle cx="163.10950000002515" cy="314.3636363636364" r="3" fill="#0a0" opacity="0.7"/>
<polygon points="172.10049999997486,316.76363636363635 177.10049999997486,326.76363636363635 167.10049999997486,326.76363636363635" fill="#0a0" opacity="0.85"/>
<circle cx="226.84299999997486" cy="291.45454545454544" r="3" fill="#0a0" opacity="0.7"/>
<circle cx="228.40899999998743" cy="297.23636363636365" r="3" fill="#0a0" opacity="0.7"/>
<circle cx="263.9275" cy="325.3818181818182" r="3" fill="#0a0" opacity="0.7"/>
<circle cx="265.43950000002513" cy="323.9636363636364" r="3" fill="#0a0" opacity="0.7"/>
<circle cx="299.0139999999874" cy="316.8727272727273" r="3" fill="#0a0" opacity="0.7"/>
<polygon points="300.51250000000005,316.54545454545456 305.51250000000005,326.54545454545456 295.51250000000005,326.54545454545456" fill="#0a0" opacity="0.85"/>
<circle cx="336.3820000000252" cy="317.41818181818184" r="3" fill="#0a0" opacity="0.7"/>
<circle cx="341.5795000000251" cy="329.4181818181818" r="3" fill="#0a0" opacity="0.7"/>
<circle cx="368.4310000000126" cy="326.79999999999995" r="3" fill="#0a0" opacity="0.7"/>
<polygon points="375.3025,322.3272727272727 380.3025,332.3272727272727 370.3025,332.3272727272727" fill="#0a0" opacity="0.85"/>
<polygon points="421.24299999997487,336.07272727272726 426.24299999997487,346.07272727272726 416.24299999997487,346.07272727272726" fill="#0a0" opacity="0.85"/>
<circle cx="432.205" cy="332.25454545454545" r="3" fill="#0a0" opacity="0.7"/>
<circle cx="440.4804999999748" cy="307.70909090909095" r="3" fill="#0a0" opacity="0.7"/>
<polygon points="456.95049999997485,315.6727272727273 461.95049999997485,325.6727272727273 451.95049999997485,325.6727272727273" fill="#0a0" opacity="0.85"/>
<circle cx="463.9704999999749" cy="317.8545454545455" r="3" fill="#0a0" opacity="0.7"/>
<circle cx="501.2035000000126" cy="323.8545454545455" r="3" fill="#0a0" opacity="0.7"/>
<circle cx="502.09450000002516" cy="323.6363636363636" r="3" fill="#0a0" opacity="0.7"/>
<circle cx="531.2814999999874" cy="322.3272727272727" r="3" fill="#0a0" opacity="0.7"/>
<circle cx="533.7789999999875" cy="324.07272727272726" r="3" fill="#0a0" opacity="0.7"/>
<polygon points="556.8639999999874,323.5272727272727 561.8639999999874,333.5272727272727 551.8639999999874,333.5272727272727" fill="#0a0" opacity="0.85"/>
<circle cx="558.5514999999875" cy="328.0" r="3" fill="#0a0" opacity="0.7"/>
<circle cx="619.4364999999874" cy="323.0909090909091" r="3" fill="#0a0" opacity="0.7"/>
<circle cx="626.2404999999749" cy="324.5090909090909" r="3" fill="#0a0" opacity="0.7"/>
<polygon points="666.9025,316.21818181818185 671.9025,326.21818181818185 661.9025,326.21818181818185" fill="#0a0" opacity="0.85"/>
<circle cx="684.2904999999748" cy="322.43636363636364" r="3" fill="#0a0" opacity="0.7"/>
<circle cx="684.2904999999748" cy="330.07272727272726" r="3" fill="#0a0" opacity="0.7"/>
<circle cx="717.8920000000252" cy="334.0" r="3" fill="#0a0" opacity="0.7"/>
<circle cx="720.0385000000126" cy="341.74545454545455" r="3" fill="#0a0" opacity="0.7"/>
<polygon points="766.8564999999875,323.3090909090909 771.8564999999875,333.3090909090909 761.8564999999875,333.3090909090909" fill="#0a0" opacity="0.85"/>
<circle cx="767.7610000000126" cy="326.9090909090909" r="3" fill="#0a0" opacity="0.7"/>
<circle cx="819.6010000000126" cy="331.4909090909091" r="3" fill="#0a0" opacity="0.7"/>
<circle cx="821.7204999999749" cy="325.3818181818182" r="3" fill="#0a0" opacity="0.7"/>
<circle cx="861.7210000000125" cy="334.9818181818182" r="3" fill="#0a0" opacity="0.7"/>
<circle cx="866.2839999999874" cy="332.9090909090909" r="3" fill="#0a0" opacity="0.7"/>
<polygon points="868.1064999999875,319.92727272727274 873.1064999999875,329.92727272727274 863.1064999999875,329.92727272727274" fill="#0a0" opacity="0.85"/>
<polygon points="86.86149999998743,64.43636363636364 91.86149999998743,74.43636363636364 81.86149999998743,74.43636363636364" fill="#c00" opacity="0.85"/>
<circle cx="91.69450000002514" cy="54.18181818181813" r="3" fill="#c00" opacity="0.7"/>
<circle cx="120.23350000001257" cy="168.39999999999998" r="3" fill="#c00" opacity="0.7"/>
<circle cx="121.58350000001258" cy="178.54545454545456" r="3" fill="#c00" opacity="0.7"/>
<circle cx="163.10950000002515" cy="209.63636363636363" r="3" fill="#c00" opacity="0.7"/>
<polygon points="172.10049999997486,197.85454545454542 177.10049999997486,207.85454545454542 167.10049999997486,207.85454545454542" fill="#c00" opacity="0.85"/>
<circle cx="226.84299999997486" cy="252.18181818181816" r="3" fill="#c00" opacity="0.7"/>
<circle cx="228.40899999998743" cy="264.29090909090905" r="3" fill="#c00" opacity="0.7"/>
<circle cx="263.9275" cy="300.5090909090909" r="3" fill="#c00" opacity="0.7"/>
<circle cx="265.43950000002513" cy="301.3818181818182" r="3" fill="#c00" opacity="0.7"/>
<circle cx="299.0139999999874" cy="292.8727272727273" r="3" fill="#c00" opacity="0.7"/>
<polygon points="300.51250000000005,289.92727272727274 305.51250000000005,299.92727272727274 295.51250000000005,299.92727272727274" fill="#c00" opacity="0.85"/>
<circle cx="336.3820000000252" cy="305.5272727272727" r="3" fill="#c00" opacity="0.7"/>
<circle cx="341.5795000000251" cy="322.1090909090909" r="3" fill="#c00" opacity="0.7"/>
<circle cx="368.4310000000126" cy="317.74545454545455" r="3" fill="#c00" opacity="0.7"/>
<polygon points="375.3025,318.1818181818182 380.3025,328.1818181818182 370.3025,328.1818181818182" fill="#c00" opacity="0.85"/>
<polygon points="421.24299999997487,338.1454545454545 426.24299999997487,348.1454545454545 416.24299999997487,348.1454545454545" fill="#c00" opacity="0.85"/>
<circle cx="432.205" cy="363.0181818181818" r="3" fill="#c00" opacity="0.7"/>
<circle cx="440.4804999999748" cy="344.6909090909091" r="3" fill="#c00" opacity="0.7"/>
<polygon points="456.95049999997485,354.07272727272726 461.95049999997485,364.07272727272726 451.95049999997485,364.07272727272726" fill="#c00" opacity="0.85"/>
<circle cx="463.9704999999749" cy="334.54545454545456" r="3" fill="#c00" opacity="0.7"/>
<circle cx="501.2035000000126" cy="340.6545454545454" r="3" fill="#c00" opacity="0.7"/>
<circle cx="502.09450000002516" cy="323.6363636363636" r="3" fill="#c00" opacity="0.7"/>
<circle cx="531.2814999999874" cy="352.76363636363635" r="3" fill="#c00" opacity="0.7"/>
<circle cx="533.7789999999875" cy="324.2909090909091" r="3" fill="#c00" opacity="0.7"/>
<polygon points="556.8639999999874,326.4727272727273 561.8639999999874,336.4727272727273 551.8639999999874,336.4727272727273" fill="#c00" opacity="0.85"/>
<circle cx="558.5514999999875" cy="337.7090909090909" r="3" fill="#c00" opacity="0.7"/>
<circle cx="619.4364999999874" cy="322.8727272727273" r="3" fill="#c00" opacity="0.7"/>
<circle cx="626.2404999999749" cy="311.8545454545455" r="3" fill="#c00" opacity="0.7"/>
<polygon points="666.9025,281.74545454545455 671.9025,291.74545454545455 661.9025,291.74545454545455" fill="#c00" opacity="0.85"/>
<circle cx="684.2904999999748" cy="339.6727272727273" r="3" fill="#c00" opacity="0.7"/>
<circle cx="684.2904999999748" cy="321.0181818181818" r="3" fill="#c00" opacity="0.7"/>
<circle cx="717.8920000000252" cy="284.6909090909091" r="3" fill="#c00" opacity="0.7"/>
<circle cx="720.0385000000126" cy="276.6181818181818" r="3" fill="#c00" opacity="0.7"/>
<polygon points="766.8564999999875,222.61818181818182 771.8564999999875,232.61818181818182 761.8564999999875,232.61818181818182" fill="#c00" opacity="0.85"/>
<circle cx="767.7610000000126" cy="238.3272727272727" r="3" fill="#c00" opacity="0.7"/>
<circle cx="819.6010000000126" cy="170.25454545454545" r="3" fill="#c00" opacity="0.7"/>
<circle cx="821.7204999999749" cy="173.96363636363634" r="3" fill="#c00" opacity="0.7"/>
<circle cx="861.7210000000125" cy="94.32727272727271" r="3" fill="#c00" opacity="0.7"/>
<circle cx="866.2839999999874" cy="103.05454545454546" r="3" fill="#c00" opacity="0.7"/>
<polygon points="868.1064999999875,58.327272727272714 873.1064999999875,68.32727272727271 863.1064999999875,68.32727272727271" fill="#c00" opacity="0.85"/>
<rect x="702" y="36" width="180" height="60" fill="white" stroke="#ccc"/>
<polygon points="715,45 720,55 710,55" fill="#c00"/>
<text x="730" y="54" class="label">ODM GCP</text>
<circle cx="795" cy="50" r="3" fill="#c00"/>
<text x="805" y="54" class="label">ODM CHK</text>
<polygon points="715,63 720,73 710,73" fill="#0a0"/>
<text x="730" y="72" class="label">Pix4D GCP</text>
<circle cx="795" cy="68" r="3" fill="#0a0"/>
<text x="805" y="72" class="label">Pix4D CHK</text>
</svg>