<svg xmlns="http://www.w3.org/2000/svg" viewBox="0 0 700 400" font-family="sans-serif" font-size="12">
<style>.ax{stroke:#888;fill:none}.grid{stroke:#eee;fill:none}.label{fill:#333}.title{fill:#222;font-weight:bold;font-size:14px}</style>
<text x="350.0" y="20" text-anchor="middle" class="title">ODM ortho dH vs distance from rasterizer offset (quadratic fit R²=0.96)</text>
<line class="grid" x1="70" y1="303.030303030303" x2="680" y2="303.030303030303"/>
<text x="64" y="307.030303030303" text-anchor="end" class="label">0.5</text>
<line class="grid" x1="70" y1="256.06060606060606" x2="680" y2="256.06060606060606"/>
<text x="64" y="260.06060606060606" text-anchor="end" class="label">1.0</text>
<line class="grid" x1="70" y1="209.09090909090907" x2="680" y2="209.09090909090907"/>
<text x="64" y="213.09090909090907" text-anchor="end" class="label">1.5</text>
<line class="grid" x1="70" y1="162.12121212121212" x2="680" y2="162.12121212121212"/>
<text x="64" y="166.12121212121212" text-anchor="end" class="label">2.0</text>
<line class="grid" x1="70" y1="115.15151515151516" x2="680" y2="115.15151515151516"/>
<text x="64" y="119.15151515151516" text-anchor="end" class="label">2.5</text>
<line class="grid" x1="70" y1="68.18181818181813" x2="680" y2="68.18181818181813"/>
<text x="64" y="72.18181818181813" text-anchor="end" class="label">3.0</text>
<line class="ax" x1="70" y1="40" x2="70" y2="350"/>
<line class="ax" x1="70" y1="350" x2="680" y2="350"/>
<text x="20" y="195.0" transform="rotate(-90 20 195.0)" text-anchor="middle" class="label">ODM ortho dH (ft)</text>
<text x="350.0" y="385" text-anchor="middle" class="label">|Northing − rasterizer offset| (m)</text>
<line class="ax" x1="70.0" y1="350" x2="70.0" y2="354"/>
<text x="70.0" y="366" text-anchor="middle" class="label">0</text>
<line class="ax" x1="168.38709677419354" y1="350" x2="168.38709677419354" y2="354"/>
<text x="168.38709677419354" y="366" text-anchor="middle" class="label">500</text>
<line class="ax" x1="266.7741935483871" y1="350" x2="266.7741935483871" y2="354"/>
<text x="266.7741935483871" y="366" text-anchor="middle" class="label">1000</text>
<line class="ax" x1="365.16129032258067" y1="350" x2="365.16129032258067" y2="354"/>
<text x="365.16129032258067" y="366" text-anchor="middle" class="label">1500</text>
<line class="ax" x1="463.5483870967742" y1="350" x2="463.5483870967742" y2="354"/>
<text x="463.5483870967742" y="366" text-anchor="middle" class="label">2000</text>
<line class="ax" x1="561.9354838709677" y1="350" x2="561.9354838709677" y2="354"/>
<text x="561.9354838709677" y="366" text-anchor="middle" class="label">2500</text>
<line class="ax" x1="660.3225806451613" y1="350" x2="660.3225806451613" y2="354"/>
<text x="660.3225806451613" y="366" text-anchor="middle" class="label">3000</text>
<polyline points="70.0,287.6 73.9,288.5 77.9,289.3 81.8,290.1 85.7,290.8 89.7,291.5 93.6,292.2 97.5,292.9 101.5,293.5 105.4,294.1 109.4,294.6 113.3,295.2 117.2,295.7 121.2,296.1 125.1,296.6 129.0,297.0 133.0,297.3 136.9,297.7 140.8,298.0 144.8,298.3 148.7,298.5 152.6,298.7 156.6,298.9 160.5,299.1 164.5,299.2 168.4,299.3 172.3,299.3 176.3,299.4 180.2,299.4 184.1,299.3 188.1,299.3 192.0,299.2 195.9,299.0 199.9,298.9 203.8,298.7 207.7,298.5 211.7,298.2 215.6,297.9 219.5,297.6 223.5,297.3 227.4,296.9 231.4,296.5 235.3,296.0 239.2,295.6 243.2,295.1 247.1,294.5 251.0,294.0 255.0,293.4 258.9,292.7 262.8,292.1 266.8,291.4 270.7,290.7 274.6,289.9 278.6,289.1 282.5,288.3 286.5,287.5 290.4,286.6 294.3,285.7 298.3,284.7 302.2,283.8 306.1,282.8 310.1,281.7 314.0,280.7 317.9,279.6 321.9,278.4 325.8,277.3 329.7,276.1 333.7,274.9 337.6,273.6 341.5,272.3 345.5,271.0 349.4,269.7 353.4,268.3 357.3,266.9 361.2,265.4 365.2,264.0 369.1,262.4 373.0,260.9 377.0,259.3 380.9,257.7 384.8,256.1 388.8,254.5 392.7,252.8 396.6,251.0 400.6,249.3 404.5,247.5 408.5,245.7 412.4,243.8 416.3,242.0 420.3,240.1 424.2,238.1 428.1,236.1 432.1,234.1 436.0,232.1 439.9,230.0 443.9,227.9 447.8,225.8 451.7,223.6 455.7,221.5 459.6,219.2 463.5,217.0 467.5,214.7 471.4,212.4 475.4,210.0 479.3,207.7 483.2,205.2 487.2,202.8 491.1,200.3 495.0,197.8 499.0,195.3 502.9,192.7 506.8,190.1 510.8,187.5 514.7,184.8 518.6,182.1 522.6,179.4 526.5,176.7 530.5,173.9 534.4,171.1 538.3,168.2 542.3,165.3 546.2,162.4 550.1,159.5 554.1,156.5 558.0,153.5 561.9,150.5 565.9,147.4 569.8,144.3 573.7,141.2 577.7,138.0 581.6,134.8 585.5,131.6 589.5,128.3 593.4,125.1 597.4,121.7 601.3,118.4 605.2,115.0 609.2,111.6 613.1,108.2 617.0,104.7 621.0,101.2 624.9,97.7 628.8,94.1 632.8,90.5 636.7,86.9 640.6,83.2 644.6,79.5 648.5,75.8 652.5,72.0 656.4,68.2 660.3,64.4" fill="none" stroke="#444" stroke-width="1.5" opacity="0.7"/>
<polygon points="636.9261290322764,60.20909090909089 641.9261290322764,70.20909090909089 631.9261290322764,70.20909090909089" fill="#c00" opacity="0.85"/>
<circle cx="629.8816129031892" cy="52.21212121212119" r="3" fill="#c00" opacity="0.7"/>
<circle cx="588.2835483870784" cy="150.56666666666663" r="3" fill="#c00" opacity="0.7"/>
<circle cx="586.3158064515945" cy="159.3030303030303" r="3" fill="#c00" opacity="0.7"/>
<circle cx="525.7880645160924" cy="186.07575757575756" r="3" fill="#c00" opacity="0.7"/>
<polygon points="512.6829032258431,175.09696969696967 517.6829032258431,185.09696969696967 507.6829032258431,185.09696969696967" fill="#c00" opacity="0.85"/>
<circle cx="432.89096774197213" cy="222.7121212121212" r="3" fill="#c00" opacity="0.7"/>
<circle cx="430.6083870967925" cy="233.13939393939393" r="3" fill="#c00" opacity="0.7"/>
<circle cx="378.8370967741936" cy="264.3272727272727" r="3" fill="#c00" opacity="0.7"/>
<circle cx="376.63322580641494" cy="265.07878787878786" r="3" fill="#c00" opacity="0.7"/>
<circle cx="327.69548387098604" cy="257.75151515151515" r="3" fill="#c00" opacity="0.7"/>
<polygon points="325.51129032258063,254.38181818181818 330.51129032258063,264.3818181818182 320.51129032258063,264.3818181818182" fill="#c00" opacity="0.85"/>
<circle cx="273.22838709673755" cy="268.6484848484848" r="3" fill="#c00" opacity="0.7"/>
<circle cx="265.65258064512466" cy="282.92727272727274" r="3" fill="#c00" opacity="0.7"/>
<circle cx="226.51419354836878" cy="279.169696969697" r="3" fill="#c00" opacity="0.7"/>
<polygon points="216.4983870967742,278.71212121212125 221.4983870967742,288.71212121212125 211.4983870967742,288.71212121212125" fill="#c00" opacity="0.85"/>
<polygon points="149.53612903229472,295.9030303030303 154.53612903229472,305.9030303030303 144.53612903229472,305.9030303030303" fill="#c00" opacity="0.85"/>
<circle cx="133.55806451612904" cy="318.1545454545454" r="3" fill="#c00" opacity="0.7"/>
<circle cx="121.49580645164956" cy="302.3727272727273" r="3" fill="#c00" opacity="0.7"/>
<polygon points="97.48935483874632,309.6181818181818 102.48935483874632,319.6181818181818 92.48935483874632,319.6181818181818" fill="#c00" opacity="0.85"/>
<circle cx="87.2570967742302" cy="293.6363636363636" r="3" fill="#c00" opacity="0.7"/>
<circle cx="107.01322580646993" cy="298.8969696969697" r="3" fill="#c00" opacity="0.7"/>
<circle cx="108.31193548390762" cy="284.24242424242425" r="3" fill="#c00" opacity="0.7"/>
<circle cx="150.85451612901392" cy="309.3242424242424" r="3" fill="#c00" opacity="0.7"/>
<circle cx="154.4948387096591" cy="284.8060606060606" r="3" fill="#c00" opacity="0.7"/>
<polygon points="188.1432258064333,285.8515151515152 193.1432258064333,295.8515151515152 183.1432258064333,295.8515151515152" fill="#c00" opacity="0.85"/>
<circle cx="190.6029032257881" cy="296.3606060606061" r="3" fill="#c00" opacity="0.7"/>
<circle cx="279.3480645161107" cy="283.5848484848485" r="3" fill="#c00" opacity="0.7"/>
<circle cx="289.2654838709311" cy="274.0969696969697" r="3" fill="#c00" opacity="0.7"/>
<polygon points="348.5338709677419,247.33636363636361 353.5338709677419,257.3363636363636 343.5338709677419,257.3363636363636" fill="#c00" opacity="0.85"/>
<circle cx="373.8783870967375" cy="298.05151515151516" r="3" fill="#c00" opacity="0.7"/>
<circle cx="373.8783870967375" cy="281.9878787878788" r="3" fill="#c00" opacity="0.7"/>
<circle cx="422.85548387100437" cy="250.7060606060606" r="3" fill="#c00" opacity="0.7"/>
<circle cx="425.9841935484054" cy="243.75454545454545" r="3" fill="#c00" opacity="0.7"/>
<polygon points="494.22548387094946,196.4212121212121 499.22548387094946,206.4212121212121 489.22548387094946,206.4212121212121" fill="#c00" opacity="0.85"/>
<circle cx="495.54387096776026" cy="210.78181818181818" r="3" fill="#c00" opacity="0.7"/>
<circle cx="571.1051612903409" cy="152.16363636363636" r="3" fill="#c00" opacity="0.7"/>
<circle cx="574.1945161289956" cy="155.35757575757575" r="3" fill="#c00" opacity="0.7"/>
<circle cx="632.4987096774377" cy="86.78181818181815" r="3" fill="#c00" opacity="0.7"/>
<circle cx="639.1496774193365" cy="94.29696969696971" r="3" fill="#c00" opacity="0.7"/>
<polygon points="641.8061290322397,54.94848484848484 646.8061290322397,64.94848484848484 636.8061290322397,64.94848484848484" fill="#c00" opacity="0.85"/>
</svg>