<svg xmlns="http://www.w3.org/2000/svg" viewBox="0 0 920 420" font-family="sans-serif" font-size="12">
<style>.ax{stroke:#888;fill:none}.grid{stroke:#eee;fill:none}.label{fill:#333}.title{fill:#222;font-weight:bold;font-size:13px}</style>
<text x="232.5" y="32" text-anchor="middle" class="title">East/West: dX vs (east of offset)  —  slope = -357 ppm</text>
<line class="grid" x1="35.0" y1="370.0" x2="430.0" y2="370.0"/>
<text x="29.0" y="374.0" text-anchor="end" class="label">-4</text>
<line class="grid" x1="35.0" y1="328.75" x2="430.0" y2="328.75"/>
<text x="29.0" y="332.75" text-anchor="end" class="label">-3</text>
<line class="grid" x1="35.0" y1="287.5" x2="430.0" y2="287.5"/>
<text x="29.0" y="291.5" text-anchor="end" class="label">-2</text>
<line class="grid" x1="35.0" y1="246.25" x2="430.0" y2="246.25"/>
<text x="29.0" y="250.25" text-anchor="end" class="label">-1</text>
<line x1="35.0" y1="205.0" x2="430.0" y2="205.0" stroke="black" stroke-opacity="0.5"/>
<text x="29.0" y="209.0" text-anchor="end" class="label">+0</text>
<line class="grid" x1="35.0" y1="163.75" x2="430.0" y2="163.75"/>
<text x="29.0" y="167.75" text-anchor="end" class="label">+1</text>
<line class="grid" x1="35.0" y1="122.5" x2="430.0" y2="122.5"/>
<text x="29.0" y="126.5" text-anchor="end" class="label">+2</text>
<line class="grid" x1="35.0" y1="81.25" x2="430.0" y2="81.25"/>
<text x="29.0" y="85.25" text-anchor="end" class="label">+3</text>
<line class="grid" x1="35.0" y1="40.0" x2="430.0" y2="40.0"/>
<text x="29.0" y="44.0" text-anchor="end" class="label">+4</text>
<line class="grid" x1="35.0" y1="370.0" x2="35.0" y2="40.0"/>
<text x="35.0" y="386" text-anchor="middle" class="label">-2000</text>
<line class="grid" x1="133.75" y1="370.0" x2="133.75" y2="40.0"/>
<text x="133.75" y="386" text-anchor="middle" class="label">-1000</text>
<line x1="232.5" y1="370.0" x2="232.5" y2="40.0" stroke="black" stroke-opacity="0.5"/>
<text x="232.5" y="386" text-anchor="middle" class="label">+0</text>
<line class="grid" x1="331.25" y1="370.0" x2="331.25" y2="40.0"/>
<text x="331.25" y="386" text-anchor="middle" class="label">+1000</text>
<line class="grid" x1="430.0" y1="370.0" x2="430.0" y2="40.0"/>
<text x="430.0" y="386" text-anchor="middle" class="label">+2000</text>
<line class="ax" x1="35.0" y1="40" x2="35.0" y2="370"/>
<line class="ax" x1="35.0" y1="370" x2="430.0" y2="370"/>
<text x="20" y="205.0" transform="rotate(-90 20 205.0)" text-anchor="middle" class="label">dX error (ft)</text>
<text x="232.5" y="405" text-anchor="middle" class="label">dE from offset (m)</text>
<line x1="35.0" y1="108.36634749999996" x2="430.0" y2="301.6336525" stroke="#06c" stroke-width="1.5" stroke-dasharray="5,3" opacity="0.8"/>
<polygon points="45.0725,74.981875 50.0725,84.981875 40.0725,84.981875" fill="#c00" opacity="0.85"/>
<circle cx="40.589250000000575" cy="74.46849999999995" r="3" fill="#c00" opacity="0.7"/>
<circle cx="66.205" cy="124.657375" r="3" fill="#c00" opacity="0.7"/>
<circle cx="62.11675000000058" cy="125.754625" r="3" fill="#c00" opacity="0.7"/>
<circle cx="90.36912500000115" cy="147.4645" r="3" fill="#c00" opacity="0.7"/>
<polygon points="86.17225000000116,128.80075 91.17225000000116,138.80075 81.17225000000116,138.80075" fill="#c00" opacity="0.85"/>
<circle cx="117.26862500000058" cy="150.24062500000002" r="3" fill="#c00" opacity="0.7"/>
<circle cx="112.271875" cy="154.477" r="3" fill="#c00" opacity="0.7"/>
<circle cx="128.9211250000006" cy="172.457875" r="3" fill="#c00" opacity="0.7"/>
<circle cx="124.83287500000115" cy="173.7655" r="3" fill="#c00" opacity="0.7"/>
<circle cx="134.15487500000057" cy="167.474875" r="3" fill="#c00" opacity="0.7"/>
<polygon points="129.89875,164.35 134.89875,174.35 124.89875,174.35" fill="#c00" opacity="0.85"/>
<circle cx="146.94300000000055" cy="171.99175" r="3" fill="#c00" opacity="0.7"/>
<circle cx="143.04237500000056" cy="175.53925" r="3" fill="#c00" opacity="0.7"/>
<circle cx="158.9707499999994" cy="174.132625" r="3" fill="#c00" opacity="0.7"/>
<polygon points="170.6726249999994,170.33537500000003 175.6726249999994,180.33537500000003 165.6726249999994,180.33537500000003" fill="#c00" opacity="0.85"/>
<polygon points="210.55774999999883,178.51112500000002 215.55774999999883,188.51112500000002 205.55774999999883,188.51112500000002" fill="#c00" opacity="0.85"/>
<circle cx="216.81850000000117" cy="191.185375" r="3" fill="#c00" opacity="0.7"/>
<circle cx="243.411875" cy="196.65925" r="3" fill="#c00" opacity="0.7"/>
<polygon points="255.49887499999943,199.9075 260.49887499999943,209.9075 250.49887499999943,209.9075" fill="#c00" opacity="0.85"/>
<circle cx="268.57337499999886" cy="223.8925" r="3" fill="#c00" opacity="0.7"/>
<circle cx="293.379375" cy="227.4235" r="3" fill="#c00" opacity="0.7"/>
<circle cx="287.6123750000006" cy="232.8685" r="3" fill="#c00" opacity="0.7"/>
<circle cx="304.2616250000012" cy="215.0815" r="3" fill="#c00" opacity="0.7"/>
<circle cx="299.94624999999996" cy="232.39825000000002" r="3" fill="#c00" opacity="0.7"/>
<polygon points="304.9726249999994,221.89375 309.9726249999994,231.89375 299.9726249999994,231.89375" fill="#c00" opacity="0.85"/>
<circle cx="309.90024999999883" cy="228.38049999999998" r="3" fill="#c00" opacity="0.7"/>
<circle cx="319.8048750000006" cy="228.925" r="3" fill="#c00" opacity="0.7"/>
<circle cx="324.2486250000006" cy="236.42425" r="3" fill="#c00" opacity="0.7"/>
<polygon points="325.94712499999883,234.157375 330.94712499999883,244.157375 320.94712499999883,244.157375" fill="#c00" opacity="0.85"/>
<circle cx="334.7852499999989" cy="222.081625" r="3" fill="#c00" opacity="0.7"/>
<circle cx="330.855" cy="231.156625" r="3" fill="#c00" opacity="0.7"/>
<circle cx="342.64574999999945" cy="238.55275" r="3" fill="#c00" opacity="0.7"/>
<circle cx="338.65625" cy="244.23287499999998" r="3" fill="#c00" opacity="0.7"/>
<polygon points="357.31012499999946,254.48537499999998 362.31012499999946,264.485375 352.31012499999946,264.485375" fill="#c00" opacity="0.85"/>
<circle cx="352.15537500000113" cy="254.553625" r="3" fill="#c00" opacity="0.7"/>
<circle cx="372.2510000000011" cy="278.2765" r="3" fill="#c00" opacity="0.7"/>
<circle cx="367.9257499999994" cy="271.152625" r="3" fill="#c00" opacity="0.7"/>
<circle cx="396.09912500000115" cy="320.594875" r="3" fill="#c00" opacity="0.7"/>
<circle cx="397.13600000000116" cy="316.91949999999997" r="3" fill="#c00" opacity="0.7"/>
<polygon points="395.73375,325.75712500000003 400.73375,335.75712500000003 390.73375,335.75712500000003" fill="#c00" opacity="0.85"/>
<text x="692.5" y="32" text-anchor="middle" class="title">North/South: dY vs (north of offset)  —  slope = -73 ppm</text>
<line class="grid" x1="495.0" y1="370.0" x2="890.0" y2="370.0"/>
<text x="489.0" y="374.0" text-anchor="end" class="label">-2</text>
<line class="grid" x1="495.0" y1="287.5" x2="890.0" y2="287.5"/>
<text x="489.0" y="291.5" text-anchor="end" class="label">-1</text>
<line x1="495.0" y1="205.0" x2="890.0" y2="205.0" stroke="black" stroke-opacity="0.5"/>
<text x="489.0" y="209.0" text-anchor="end" class="label">+0</text>
<line class="grid" x1="495.0" y1="122.5" x2="890.0" y2="122.5"/>
<text x="489.0" y="126.5" text-anchor="end" class="label">+1</text>
<line class="grid" x1="495.0" y1="40.0" x2="890.0" y2="40.0"/>
<text x="489.0" y="44.0" text-anchor="end" class="label">+2</text>
<line class="grid" x1="495.0" y1="370.0" x2="495.0" y2="40.0"/>
<text x="495.0" y="386" text-anchor="middle" class="label">-3000</text>
<line class="grid" x1="560.8333333333334" y1="370.0" x2="560.8333333333334" y2="40.0"/>
<text x="560.8333333333334" y="386" text-anchor="middle" class="label">-2000</text>
<line class="grid" x1="626.6666666666666" y1="370.0" x2="626.6666666666666" y2="40.0"/>
<text x="626.6666666666666" y="386" text-anchor="middle" class="label">-1000</text>
<line x1="692.5" y1="370.0" x2="692.5" y2="40.0" stroke="black" stroke-opacity="0.5"/>
<text x="692.5" y="386" text-anchor="middle" class="label">+0</text>
<line class="grid" x1="758.3333333333333" y1="370.0" x2="758.3333333333333" y2="40.0"/>
<text x="758.3333333333333" y="386" text-anchor="middle" class="label">+1000</text>
<line class="grid" x1="824.1666666666667" y1="370.0" x2="824.1666666666667" y2="40.0"/>
<text x="824.1666666666667" y="386" text-anchor="middle" class="label">+2000</text>
<line class="grid" x1="890.0" y1="370.0" x2="890.0" y2="40.0"/>
<text x="890.0" y="386" text-anchor="middle" class="label">+3000</text>
<line class="ax" x1="495.0" y1="40" x2="495.0" y2="370"/>
<line class="ax" x1="495.0" y1="370" x2="890.0" y2="370"/>
<text x="480.0" y="205.0" transform="rotate(-90 480.0 205.0)" text-anchor="middle" class="label">dY error (ft)</text>
<text x="692.5" y="405" text-anchor="middle" class="label">dN from offset (m)</text>
<line x1="495.0" y1="145.72053250000002" x2="890.0" y2="264.2794675" stroke="#06c" stroke-width="1.5" stroke-dasharray="5,3" opacity="0.8"/>
<polygon points="502.8275833333272,174.30775 507.8275833333272,184.30775 497.8275833333272,184.30775" fill="#c00" opacity="0.85"/>
<circle cx="505.18441666667894" cy="189.11875" r="3" fill="#c00" opacity="0.7"/>
<circle cx="519.1015833333395" cy="135.21325000000002" r="3" fill="#c00" opacity="0.7"/>
<circle cx="519.7599166666728" cy="150.8635" r="3" fill="#c00" opacity="0.7"/>
<circle cx="540.0102500000123" cy="118.507" r="3" fill="#c00" opacity="0.7"/>
<polygon points="544.3947499999878,151.00150000000002 549.3947499999878,161.00150000000002 539.3947499999878,161.00150000000002" fill="#c00" opacity="0.85"/>
<circle cx="571.0901666666545" cy="182.76625" r="3" fill="#c00" opacity="0.7"/>
<circle cx="571.8538333333272" cy="187.0645" r="3" fill="#c00" opacity="0.7"/>
<circle cx="589.1745833333333" cy="167.23975" r="3" fill="#c00" opacity="0.7"/>
<circle cx="589.911916666679" cy="164.26975" r="3" fill="#c00" opacity="0.7"/>
<circle cx="606.2846666666605" cy="174.40075000000002" r="3" fill="#c00" opacity="0.7"/>
<polygon points="607.0154166666666,161.68525 612.0154166666666,171.68525 602.0154166666666,171.68525" fill="#c00" opacity="0.85"/>
<circle cx="624.5073333333456" cy="177.58525" r="3" fill="#c00" opacity="0.7"/>
<circle cx="627.041916666679" cy="203.6305" r="3" fill="#c00" opacity="0.7"/>
<circle cx="640.1361666666728" cy="212.92825000000002" r="3" fill="#c00" opacity="0.7"/>
<polygon points="643.4870833333333,197.5975 648.4870833333333,207.5975 638.4870833333333,207.5975" fill="#c00" opacity="0.85"/>
<polygon points="665.8901666666544,188.81949999999998 670.8901666666544,198.81949999999998 660.8901666666544,198.81949999999998" fill="#c00" opacity="0.85"/>
<circle cx="671.2358333333333" cy="209.158" r="3" fill="#c00" opacity="0.7"/>
<circle cx="675.2714166666544" cy="166.63750000000002" r="3" fill="#c00" opacity="0.7"/>
<polygon points="683.3030833333211,168.86275 688.3030833333211,178.86275 678.3030833333211,178.86275" fill="#c00" opacity="0.85"/>
<circle cx="686.7264166666544" cy="172.99824999999998" r="3" fill="#c00" opacity="0.7"/>
<circle cx="704.8832500000061" cy="207.35125" r="3" fill="#c00" opacity="0.7"/>
<circle cx="705.3177500000122" cy="220.048" r="3" fill="#c00" opacity="0.7"/>
<circle cx="719.5509166666606" cy="234.46075" r="3" fill="#c00" opacity="0.7"/>
<circle cx="720.7688333333272" cy="221.599" r="3" fill="#c00" opacity="0.7"/>
<polygon points="732.0263333333272,221.5885 737.0263333333272,231.5885 727.0263333333272,231.5885" fill="#c00" opacity="0.85"/>
<circle cx="732.8492499999938" cy="210.643" r="3" fill="#c00" opacity="0.7"/>
<circle cx="762.5400833333272" cy="238.32174999999998" r="3" fill="#c00" opacity="0.7"/>
<circle cx="765.858083333321" cy="227.20075" r="3" fill="#c00" opacity="0.7"/>
<polygon points="785.6870833333332,246.52824999999999 790.6870833333332,256.52824999999996 780.6870833333332,256.52824999999996" fill="#c00" opacity="0.85"/>
<circle cx="794.1664166666544" cy="235.2775" r="3" fill="#c00" opacity="0.7"/>
<circle cx="794.1664166666544" cy="233.875" r="3" fill="#c00" opacity="0.7"/>
<circle cx="810.5523333333456" cy="260.671" r="3" fill="#c00" opacity="0.7"/>
<circle cx="811.5990833333394" cy="255.48174999999998" r="3" fill="#c00" opacity="0.7"/>
<polygon points="834.4300833333273,265.98175000000003 839.4300833333273,275.98175000000003 829.4300833333273,275.98175000000003" fill="#c00" opacity="0.85"/>
<circle cx="834.8711666666727" cy="276.62649999999996" r="3" fill="#c00" opacity="0.7"/>
<circle cx="860.1511666666728" cy="298.36525" r="3" fill="#c00" opacity="0.7"/>
<circle cx="861.1847499999877" cy="313.2565" r="3" fill="#c00" opacity="0.7"/>
<circle cx="880.6911666666728" cy="208.14325" r="3" fill="#c00" opacity="0.7"/>
<circle cx="882.9163333333272" cy="222.85299999999998" r="3" fill="#c00" opacity="0.7"/>
<polygon points="883.8050833333273,211.76275 888.8050833333273,221.76275 878.8050833333273,221.76275" fill="#c00" opacity="0.85"/>
</svg>